<?xml version="1.0" standalone="no"?><!DOCTYPE svg PUBLIC "-//W3C//DTD SVG 1.1//EN" "http://www.w3.org/Graphics/SVG/1.1/DTD/svg11.dtd"><svg t="1585127366098" class="icon" viewBox="0 0 1024 1024" version="1.1" xmlns="http://www.w3.org/2000/svg" p-id="14461" xmlns:xlink="http://www.w3.org/1999/xlink" width="9048" height="9048"><defs><style type="text/css">@font-face { font-weight: 400; font-style: normal; font-family: Inter-Loom; src: url("https://cdn.loom.com/assets/fonts/inter/Inter-UI-Regular.woff2") format("woff2"); }
@font-face { font-weight: 400; font-style: italic; font-family: Inter-Loom; src: url("https://cdn.loom.com/assets/fonts/inter/Inter-UI-Italic.woff2") format("woff2"); }
@font-face { font-weight: 500; font-style: normal; font-family: Inter-Loom; src: url("https://cdn.loom.com/assets/fonts/inter/Inter-UI-Medium.woff2") format("woff2"); }
@font-face { font-weight: 500; font-style: italic; font-family: Inter-Loom; src: url("https://cdn.loom.com/assets/fonts/inter/Inter-UI-MediumItalic.woff2") format("woff2"); }
@font-face { font-weight: 700; font-style: normal; font-family: Inter-Loom; src: url("https://cdn.loom.com/assets/fonts/inter/Inter-UI-Bold.woff2") format("woff2"); }
@font-face { font-weight: 700; font-style: italic; font-family: Inter-Loom; src: url("https://cdn.loom.com/assets/fonts/inter/Inter-UI-BoldItalic.woff2") format("woff2"); }
@font-face { font-weight: 900; font-style: normal; font-family: Inter-Loom; src: url("https://cdn.loom.com/assets/fonts/inter/Inter-UI-Black.woff2") format("woff2"); }
@font-face { font-weight: 900; font-style: italic; font-family: Inter-Loom; src: url("https://cdn.loom.com/assets/fonts/inter/Inter-UI-BlackItalic.woff2") format("woff2"); }
</style></defs><path d="M82.012832 467.373143l412.307828-405.495925c17.741429-17.441332 46.501753-17.441332 64.240359 0 17.740488 17.45074 17.740488 45.73599 0 63.181085l-338.369373 332.781373 719.569729 0c25.51571 0 46.200716 20.342577 46.200716 45.434953 0 25.093317-20.685006 45.438716-46.200716 45.438716l-719.569729 0 338.366551 332.775729c17.740488 17.442273 17.740488 45.732227 0 63.177322-17.740488 17.446036-46.501753 17.446036-64.240359 0l-412.307828-405.486517c-1.706504-1.264355-3.714985-1.912526-5.269089-3.444992-8.517466-8.377296-12.424362-19.281421-12.741392-30.256102 0.319852-15.380169 4.225807-26.284295 12.743273-34.663472C78.298788 469.285669 80.306329 468.633736 82.012832 467.373143L82.012832 467.373143zM82.012832 467.373143" p-id="14462"></path></svg>